<svg id="Layer_1" data-name="Layer 1" xmlns="http://www.w3.org/2000/svg" viewBox="0 0 1920 1280"><defs><style>.cls-1{fill:#0069aa;}.cls-2{fill:#ed7614;}</style></defs><path class="cls-1" d="M429.32,579.14l124.18.35c66.84.23,96.91,22.66,94.16,68.21-1.06,17.3-3.4,30.67-7.46,40s-12,18.2-23.89,26.48q20.7,8.7,28.7,21.31c5.36,8.42,8.23,22.41,9.21,41.92,2.62,52.22-28.75,77.87-99.15,78.11l-125.84.36A616.4,616.4,0,0,1,429.32,579.14Zm107.56,63-21.39,0q-2.19,22.08-3.1,44.27h22c8.46,0,14.43-1.78,18-5.37s5.48-9.31,6-17.16-.88-13.43-4.24-16.74S545,642.19,536.88,642.18Zm-1.77,104.36-22.82,0q.86,22.8,3.08,45.51L538,792q14.67,0,19.31-4.78c3.11-3.16,4.32-9.08,3.79-17.76s-2.59-14.69-6.38-18S544.42,746.54,535.11,746.54Z"/><path class="cls-1" d="M940,657.54c-.16-25.82-.42-51.52-.78-76.93l204.93.59c2.89,25.3,5,50.89,6.23,76.6l-54.71-.07A1575.75,1575.75,0,0,1,1090.85,854l-95.11.27c2.69-64.61,3.45-131,2.27-196.67Z"/><path class="cls-1" d="M1381.88,659.71q-59.91-6.16-86.77-6.2t-31.21,1.38a5.28,5.28,0,0,0-4,5.9q.31,4.47,5.5,6.92t32.32,8.19q27.11,5.73,44.49,11.24a112.35,112.35,0,0,1,31.42,15.5c9.31,6.66,15.49,14.82,18.3,24.46s3.89,22.62,2.59,38.88c-2.76,33.62-16.52,57.41-37.32,71.64s-49.58,21.35-85.77,21.47a430.49,430.49,0,0,1-54.43-3.44q-28.32-3.52-43.52-7.1L1157.88,845q6-35.64,9.92-71.82c42.66,5.94,77.56,8.87,105,8.83,14.56,0,22.13-3.14,22.59-9.38.2-2.71-1.36-4.69-4.65-5.9s-12.33-2.91-27.12-5.07q-58.59-8.93-79.6-27.94C1170,721,1163,700.17,1161.87,671.28c-1.48-36.78,5.06-61.71,21.38-75.1s42.41-19.95,79.19-19.84c25.89.08,56.73,2.7,92.84,7.87l17.85,2.84A603.56,603.56,0,0,1,1381.88,659.71Z"/><path class="cls-1" d="M902.6,608.67c-21-22.41-53.77-33.56-99.22-33.71S723.86,585.8,701,608.21,664.62,667,664.56,717.32s13.74,86.79,36.59,109.31c23,22.55,57.12,33.59,102.41,33.46s78-11.3,99-33.71,32-58.63,32-108.86S923.54,631.06,902.6,608.67Zm-53,163c-10.87,11.59-30.06,17.52-57,17.61h-.5c-27.26,0-47.34-6.13-59.68-18.23-13.22-13-20.25-35.58-20.26-65.19s7-52.09,20.19-65.07c12.18-11.93,32.25-18,59.6-18h.53c27,.09,46.26,6,57.16,17.64,11.45,12.25,17.52,35,17.52,65.61S861.14,759.38,849.65,771.67Z"/><path class="cls-2" d="M957.69,248.13V537.55H913.54V526.92q-29.85,15.14-54.78,15.13-40.07,0-58.66-24.12T781.5,437q0-56.82,20.65-82.58t64.38-25.75q14.72,0,46.6,5.31V248.13ZM906.18,495l7-2.86v-121a277.85,277.85,0,0,0-45.37-4.08q-41.29,0-41.29,68.67,0,37.62,9.6,52.12t30.46,14.51A107.94,107.94,0,0,0,906.18,495Z"/><path class="cls-2" d="M1157.17,500.76l11.45-1.23.81,33.12q-46.59,9.39-82.57,9.4-45.37,0-65.2-24.94t-19.83-79.71q0-108.73,88.71-108.74,85.85,0,85.84,93.61l-2.86,31.89H1046.8q.4,25.35,11,37.2t39.65,11.85Q1126.5,503.21,1157.17,500.76Zm-24.53-80.94q0-30.24-9.6-42.31t-32.5-12.06q-22.9,0-33.32,12.67t-10.83,41.7Z"/><path class="cls-2" d="M1197.23,333.16h46.6l39.25,166.37h13.08L1337,333.16h45.37l-53.14,204.39H1250Z"/><path class="cls-2" d="M829.26,686.87A47.76,47.76,0,1,1,781.5,639.1,47.75,47.75,0,0,1,829.26,686.87Z"/><path class="cls-2" d="M637.23,473.91a26.87,26.87,0,1,0,12.82-35.8A26.87,26.87,0,0,0,637.23,473.91Z"/><path class="cls-2" d="M691.53,597.66c20.47-20,48.39-32.43,83.29-37A55.32,55.32,0,0,0,679,612.26,116.59,116.59,0,0,1,691.53,597.66Z"/><path class="cls-2" d="M714.13,572a13.42,13.42,0,0,1-11.8-7l-52.58-96.18A13.43,13.43,0,1,1,673.31,456l52.59,96.18A13.43,13.43,0,0,1,714.13,572Z"/></svg>